<svg width="471" height="100" viewBox="0 0 471 100" fill="none" xmlns="http://www.w3.org/2000/svg">
<path d="M111.379 59.6876C111.379 60.8226 112.302 61.7461 113.438 61.7461C114.573 61.7461 115.496 60.8226 115.496 59.6876C115.491 59.078 114.627 57.2757 113.438 55.2926C112.248 57.2756 111.384 59.078 111.379 59.6876Z" fill="black"/>
<path d="M124.076 46.0039H102.8C102.647 48.7231 102.301 54.9891 101.498 69.4961H125.377L124.076 46.0039ZM113.437 65.3789C110.299 65.3789 107.746 62.8258 107.746 59.6875C107.746 58.9034 107.972 57.4711 109.929 54.0985C110.922 52.3863 111.902 50.9649 111.943 50.9052C112.664 49.8607 114.211 49.8607 114.932 50.9052C114.973 50.9649 115.953 52.3863 116.946 54.0985C118.903 57.4711 119.129 58.9034 119.129 59.6875C119.129 62.8258 116.576 65.3789 113.437 65.3789Z" fill="black"/>
<path d="M125.578 73.1289H101.297C101.194 74.9925 101.084 76.9738 100.968 79.0832C100.91 80.1245 101.74 81 102.781 81H124.094C125.137 81 125.965 80.1232 125.907 79.0832L125.578 73.1289Z" fill="black"/>
<path d="M106.656 30.5039H108.205L107.175 34.6211H106.656C105.823 34.6211 105.096 35.1884 104.894 35.997C104.049 39.3763 103.571 41.2848 103.3 42.3711H123.577C123.297 41.2515 122.815 39.3327 121.981 35.997C121.779 35.1884 121.052 34.6211 120.219 34.6211H119.699L118.67 30.5039H120.219C121.222 30.5039 122.035 29.6906 122.035 28.6875V20.8164C122.035 19.8133 121.222 19 120.219 19H106.656C105.653 19 104.84 19.8133 104.84 20.8164V28.6875C104.84 29.6906 105.653 30.5039 106.656 30.5039Z" fill="black"/>
<path d="M128.623 30.5039C129.072 38.6088 129.679 49.5805 129.925 53.9961H151.201C151.35 51.3233 151.694 45.0919 152.502 30.5039H128.623ZM142.057 49.0948C141.336 50.1393 139.789 50.1393 139.068 49.0948C139.027 49.0351 138.047 47.6137 137.054 45.9015C135.097 42.5289 134.871 41.0966 134.871 40.3125C134.871 37.1742 137.424 34.6211 140.562 34.6211C143.701 34.6211 146.254 37.1742 146.254 40.3125C146.254 41.0966 146.028 42.5289 144.071 45.9015C143.078 47.6137 142.098 49.0351 142.057 49.0948Z" fill="black"/>
<path d="M140.562 38.2539C139.427 38.2539 138.504 39.1774 138.504 40.3124C138.509 40.922 139.373 42.7243 140.562 44.7074C141.752 42.7244 142.616 40.922 142.621 40.3124C142.621 39.1774 141.698 38.2539 140.562 38.2539Z" fill="black"/>
<path d="M128.422 26.8711H152.703C152.806 25.0077 152.916 23.0265 153.032 20.9168C153.09 19.8755 152.26 19 151.219 19H129.906C128.863 19 128.035 19.8768 128.093 20.9168C128.101 21.0617 128.232 23.4291 128.422 26.8711Z" fill="black"/>
<path d="M147.344 69.4961H145.795L146.824 65.3789H147.344C148.177 65.3789 148.904 64.8116 149.106 64.003C149.945 60.6466 150.425 58.7313 150.7 57.6289H130.424C130.702 58.7425 131.183 60.6599 132.019 64.003C132.221 64.8116 132.948 65.3789 133.781 65.3789H134.3L135.33 69.4961H133.781C132.778 69.4961 131.965 70.3094 131.965 71.3125V79.1836C131.965 80.1867 132.778 81 133.781 81H147.344C148.347 81 149.16 80.1867 149.16 79.1836V71.3125C149.16 70.3094 148.347 69.4961 147.344 69.4961Z" fill="black"/>
<path d="M79.8381 30.5177L50.9944 17.2052C50.7023 17.07 50.3843 17 50.0625 17C49.7407 17 49.4227 17.07 49.1306 17.2052L20.2869 30.5177C19.9018 30.6959 19.5758 30.9809 19.3477 31.3387C19.1196 31.6966 18.999 32.1124 19 32.5367V36.9742C19 37.5627 19.2338 38.127 19.6499 38.5431C20.066 38.9592 20.6303 39.193 21.2188 39.193H78.9063C79.4947 39.193 80.0591 38.9592 80.4752 38.5431C80.8912 38.127 81.125 37.5627 81.125 36.9742V32.5367C81.1261 32.1124 81.0054 31.6966 80.7773 31.3387C80.5492 30.9809 80.2233 30.6959 79.8381 30.5177Z" fill="black"/>
<path d="M78.9062 70.2555H21.2188C19.9934 70.2555 19 71.2489 19 72.4742V76.9117C19 78.1371 19.9934 79.1305 21.2188 79.1305H78.9062C80.1316 79.1305 81.125 78.1371 81.125 76.9117V72.4742C81.125 71.2489 80.1316 70.2555 78.9062 70.2555Z" fill="black"/>
<path d="M45.625 43.6305H54.5V65.818H45.625V43.6305Z" fill="black"/>
<path d="M25.6562 43.6305H34.5312V65.818H25.6562V43.6305Z" fill="black"/>
<path d="M65.5938 43.6305H74.4688V65.818H65.5938V43.6305Z" fill="black"/>
<path d="M193.324 45V23.328H184.864V19.08H207.328V23.328H198.868V45H193.324ZM210.348 45V19.08H215.748V45H210.348ZM223.128 45V33.624C223.128 32.616 222.864 31.86 222.336 31.356C221.832 30.852 221.088 30.6 220.104 30.6C219.264 30.6 218.508 30.792 217.836 31.176C217.188 31.56 216.672 32.088 216.288 32.76C215.928 33.432 215.748 34.224 215.748 35.136L215.28 30.708C215.88 29.364 216.756 28.296 217.908 27.504C219.084 26.688 220.524 26.28 222.228 26.28C224.268 26.28 225.828 26.856 226.908 28.008C227.988 29.136 228.527 30.66 228.527 32.58V45H223.128ZM241.277 45.36C239.237 45.36 237.461 44.964 235.949 44.172C234.437 43.356 233.261 42.228 232.421 40.788C231.605 39.348 231.197 37.692 231.197 35.82C231.197 33.924 231.605 32.268 232.421 30.852C233.261 29.412 234.425 28.296 235.913 27.504C237.401 26.688 239.129 26.28 241.097 26.28C242.993 26.28 244.637 26.664 246.029 27.432C247.421 28.2 248.501 29.268 249.269 30.636C250.037 32.004 250.421 33.612 250.421 35.46C250.421 35.844 250.409 36.204 250.385 36.54C250.361 36.852 250.325 37.152 250.277 37.44H234.365V33.876H245.921L244.985 34.524C244.985 33.036 244.625 31.944 243.905 31.248C243.209 30.528 242.249 30.168 241.025 30.168C239.609 30.168 238.505 30.648 237.713 31.608C236.945 32.568 236.561 34.008 236.561 35.928C236.561 37.8 236.945 39.192 237.713 40.104C238.505 41.016 239.681 41.472 241.241 41.472C242.105 41.472 242.849 41.328 243.473 41.04C244.097 40.752 244.565 40.284 244.877 39.636H249.953C249.353 41.412 248.321 42.816 246.857 43.848C245.417 44.856 243.557 45.36 241.277 45.36ZM268.156 45L258.868 19.08H264.628L271.72 40.68H271.036L278.164 19.08H283.636L274.348 45H268.156ZM292.64 45.36C290.6 45.36 288.824 44.964 287.312 44.172C285.8 43.356 284.624 42.228 283.784 40.788C282.968 39.348 282.56 37.692 282.56 35.82C282.56 33.924 282.968 32.268 283.784 30.852C284.624 29.412 285.788 28.296 287.276 27.504C288.764 26.688 290.492 26.28 292.46 26.28C294.356 26.28 296 26.664 297.392 27.432C298.784 28.2 299.864 29.268 300.632 30.636C301.4 32.004 301.784 33.612 301.784 35.46C301.784 35.844 301.772 36.204 301.748 36.54C301.724 36.852 301.688 37.152 301.64 37.44H285.728V33.876H297.284L296.348 34.524C296.348 33.036 295.988 31.944 295.268 31.248C294.572 30.528 293.612 30.168 292.388 30.168C290.972 30.168 289.868 30.648 289.076 31.608C288.308 32.568 287.924 34.008 287.924 35.928C287.924 37.8 288.308 39.192 289.076 40.104C289.868 41.016 291.044 41.472 292.604 41.472C293.468 41.472 294.212 41.328 294.836 41.04C295.46 40.752 295.928 40.284 296.24 39.636H301.316C300.716 41.412 299.684 42.816 298.22 43.848C296.78 44.856 294.92 45.36 292.64 45.36ZM304.672 45V26.64H309.964V30.96H310.072V45H304.672ZM310.072 35.424L309.604 31.068C310.036 29.508 310.744 28.32 311.728 27.504C312.712 26.688 313.936 26.28 315.4 26.28C315.856 26.28 316.192 26.328 316.408 26.424V31.464C316.288 31.416 316.12 31.392 315.904 31.392C315.688 31.368 315.424 31.356 315.112 31.356C313.384 31.356 312.112 31.668 311.296 32.292C310.48 32.892 310.072 33.936 310.072 35.424ZM320.619 52.38L325.695 41.148L326.631 39.6L331.383 26.64H337.143L326.019 52.38H320.619ZM324.507 44.64L317.451 26.64H323.283L329.079 43.056L324.507 44.64ZM344.79 45L354.078 19.08H358.83L350.298 45H344.79ZM363.798 45L355.302 19.08H360.27L369.558 45H363.798ZM349.686 34.956H364.23V39.276H349.686V34.956ZM372.594 45V26.64H377.886V30.96H377.994V45H372.594ZM377.994 35.424L377.526 31.068C377.958 29.508 378.666 28.32 379.65 27.504C380.634 26.688 381.858 26.28 383.322 26.28C383.778 26.28 384.114 26.328 384.33 26.424V31.464C384.21 31.416 384.042 31.392 383.826 31.392C383.61 31.368 383.346 31.356 383.034 31.356C381.306 31.356 380.034 31.668 379.218 32.292C378.402 32.892 377.994 33.936 377.994 35.424ZM396.106 45.396C393.754 45.396 392.002 44.832 390.85 43.704C389.722 42.552 389.158 40.812 389.158 38.484V22.536L394.558 20.52V38.664C394.558 39.48 394.786 40.092 395.242 40.5C395.698 40.908 396.406 41.112 397.366 41.112C397.726 41.112 398.062 41.076 398.374 41.004C398.686 40.932 398.998 40.848 399.31 40.752V44.856C398.998 45.024 398.554 45.156 397.978 45.252C397.426 45.348 396.802 45.396 396.106 45.396ZM385.738 30.744V26.64H399.31V30.744H385.738ZM409.752 45.36C407.064 45.36 404.928 44.82 403.344 43.74C401.76 42.66 400.896 41.172 400.752 39.276H405.576C405.696 40.092 406.104 40.716 406.8 41.148C407.52 41.556 408.504 41.76 409.752 41.76C410.88 41.76 411.696 41.604 412.2 41.292C412.728 40.956 412.992 40.488 412.992 39.888C412.992 39.432 412.836 39.084 412.524 38.844C412.236 38.58 411.696 38.364 410.904 38.196L407.952 37.584C405.768 37.128 404.16 36.444 403.128 35.532C402.096 34.596 401.58 33.396 401.58 31.932C401.58 30.156 402.264 28.776 403.632 27.792C405 26.784 406.908 26.28 409.356 26.28C411.78 26.28 413.712 26.772 415.152 27.756C416.592 28.716 417.384 30.06 417.528 31.788H412.704C412.608 31.164 412.272 30.696 411.696 30.384C411.12 30.048 410.304 29.88 409.248 29.88C408.288 29.88 407.568 30.024 407.088 30.312C406.632 30.576 406.404 30.96 406.404 31.464C406.404 31.896 406.596 32.244 406.98 32.508C407.364 32.748 408 32.964 408.888 33.156L412.2 33.84C414.048 34.224 415.44 34.944 416.376 36C417.336 37.032 417.816 38.256 417.816 39.672C417.816 41.472 417.108 42.876 415.692 43.884C414.3 44.868 412.32 45.36 409.752 45.36ZM421.131 52.38L426.207 41.148L427.143 39.6L431.895 26.64H437.655L426.531 52.38H421.131ZM425.019 44.64L417.963 26.64H423.795L429.591 43.056L425.019 44.64Z" fill="black"/>
<path d="M185.8 82V56.08H194.44L201.64 81.064H198.508L205.708 56.08H214.384V82H208.912V57.628H209.848L202.828 82H197.104L190.156 57.844H191.056V82H185.8ZM224.268 82.36C222.972 82.36 221.856 82.084 220.92 81.532C220.008 80.956 219.312 80.2 218.832 79.264C218.352 78.304 218.112 77.236 218.112 76.06V63.64H223.512V75.016C223.512 76.024 223.764 76.78 224.268 77.284C224.772 77.788 225.48 78.04 226.392 78.04C227.208 78.04 227.928 77.848 228.552 77.464C229.176 77.08 229.668 76.552 230.028 75.88C230.412 75.184 230.604 74.392 230.604 73.504L231.072 77.932C230.472 79.252 229.596 80.32 228.444 81.136C227.292 81.952 225.9 82.36 224.268 82.36ZM230.712 82V77.68H230.604V63.64H236.004V82H230.712ZM247.506 82.36C244.818 82.36 242.682 81.82 241.098 80.74C239.514 79.66 238.65 78.172 238.506 76.276H243.33C243.45 77.092 243.858 77.716 244.554 78.148C245.274 78.556 246.258 78.76 247.506 78.76C248.634 78.76 249.45 78.604 249.954 78.292C250.482 77.956 250.746 77.488 250.746 76.888C250.746 76.432 250.59 76.084 250.278 75.844C249.99 75.58 249.45 75.364 248.658 75.196L245.706 74.584C243.522 74.128 241.914 73.444 240.882 72.532C239.85 71.596 239.334 70.396 239.334 68.932C239.334 67.156 240.018 65.776 241.386 64.792C242.754 63.784 244.662 63.28 247.11 63.28C249.534 63.28 251.466 63.772 252.906 64.756C254.346 65.716 255.138 67.06 255.282 68.788H250.458C250.362 68.164 250.026 67.696 249.45 67.384C248.874 67.048 248.058 66.88 247.002 66.88C246.042 66.88 245.322 67.024 244.842 67.312C244.386 67.576 244.158 67.96 244.158 68.464C244.158 68.896 244.35 69.244 244.734 69.508C245.118 69.748 245.754 69.964 246.642 70.156L249.954 70.84C251.802 71.224 253.194 71.944 254.13 73C255.09 74.032 255.57 75.256 255.57 76.672C255.57 78.472 254.862 79.876 253.446 80.884C252.054 81.868 250.074 82.36 247.506 82.36ZM267.503 82.36C265.463 82.36 263.687 81.964 262.175 81.172C260.663 80.356 259.487 79.228 258.647 77.788C257.831 76.348 257.423 74.692 257.423 72.82C257.423 70.924 257.831 69.268 258.647 67.852C259.487 66.412 260.651 65.296 262.139 64.504C263.627 63.688 265.355 63.28 267.323 63.28C269.219 63.28 270.863 63.664 272.255 64.432C273.647 65.2 274.727 66.268 275.495 67.636C276.263 69.004 276.647 70.612 276.647 72.46C276.647 72.844 276.635 73.204 276.611 73.54C276.587 73.852 276.551 74.152 276.503 74.44H260.591V70.876H272.147L271.211 71.524C271.211 70.036 270.851 68.944 270.131 68.248C269.435 67.528 268.475 67.168 267.251 67.168C265.835 67.168 264.731 67.648 263.939 68.608C263.171 69.568 262.787 71.008 262.787 72.928C262.787 74.8 263.171 76.192 263.939 77.104C264.731 78.016 265.907 78.472 267.467 78.472C268.331 78.472 269.075 78.328 269.699 78.04C270.323 77.752 270.791 77.284 271.103 76.636H276.179C275.579 78.412 274.547 79.816 273.083 80.848C271.643 81.856 269.783 82.36 267.503 82.36ZM285.475 82.36C284.179 82.36 283.063 82.084 282.127 81.532C281.215 80.956 280.519 80.2 280.039 79.264C279.559 78.304 279.319 77.236 279.319 76.06V63.64H284.719V75.016C284.719 76.024 284.971 76.78 285.475 77.284C285.979 77.788 286.687 78.04 287.599 78.04C288.415 78.04 289.135 77.848 289.759 77.464C290.383 77.08 290.875 76.552 291.235 75.88C291.619 75.184 291.811 74.392 291.811 73.504L292.279 77.932C291.679 79.252 290.803 80.32 289.651 81.136C288.499 81.952 287.107 82.36 285.475 82.36ZM291.919 82V77.68H291.811V63.64H297.211V82H291.919ZM301.543 82V63.64H306.835V67.96H306.943V82H301.543ZM313.891 82V70.336C313.891 69.4 313.639 68.716 313.135 68.284C312.655 67.828 311.971 67.6 311.083 67.6C310.315 67.6 309.607 67.78 308.959 68.14C308.335 68.476 307.843 68.968 307.483 69.616C307.123 70.24 306.943 70.984 306.943 71.848L306.475 67.708C307.075 66.364 307.939 65.296 309.067 64.504C310.219 63.688 311.599 63.28 313.207 63.28C315.127 63.28 316.615 63.82 317.671 64.9C318.751 65.98 319.291 67.336 319.291 68.968V82H313.891ZM326.239 82V70.336C326.239 69.4 325.987 68.716 325.483 68.284C325.003 67.828 324.319 67.6 323.431 67.6C322.663 67.6 321.955 67.78 321.307 68.14C320.683 68.476 320.191 68.968 319.831 69.616C319.471 70.24 319.291 70.984 319.291 71.848L318.463 67.708C319.063 66.364 319.951 65.296 321.127 64.504C322.327 63.688 323.767 63.28 325.447 63.28C327.439 63.28 328.963 63.844 330.019 64.972C331.099 66.076 331.639 67.528 331.639 69.328V82H326.239ZM351.317 82.36C349.301 82.36 347.525 81.964 345.989 81.172C344.477 80.356 343.289 79.228 342.425 77.788C341.585 76.324 341.165 74.644 341.165 72.748C341.165 70.852 341.585 69.196 342.425 67.78C343.289 66.364 344.477 65.26 345.989 64.468C347.525 63.676 349.301 63.28 351.317 63.28C353.357 63.28 355.133 63.676 356.645 64.468C358.181 65.26 359.369 66.364 360.209 67.78C361.049 69.196 361.469 70.852 361.469 72.748C361.469 74.644 361.037 76.324 360.173 77.788C359.333 79.228 358.145 80.356 356.609 81.172C355.097 81.964 353.333 82.36 351.317 82.36ZM351.317 78.112C352.157 78.112 352.913 77.896 353.585 77.464C354.281 77.032 354.833 76.42 355.241 75.628C355.649 74.812 355.853 73.84 355.853 72.712C355.853 71.056 355.409 69.784 354.521 68.896C353.657 67.984 352.589 67.528 351.317 67.528C350.045 67.528 348.965 67.984 348.077 68.896C347.213 69.808 346.781 71.08 346.781 72.712C346.781 73.84 346.985 74.812 347.393 75.628C347.801 76.42 348.341 77.032 349.013 77.464C349.709 77.896 350.477 78.112 351.317 78.112ZM365.384 82V62.416C365.384 60.208 365.984 58.54 367.184 57.412C368.384 56.284 370.16 55.72 372.512 55.72C373.016 55.72 373.448 55.744 373.808 55.792C374.192 55.84 374.564 55.924 374.924 56.044V60.184C374.756 60.112 374.552 60.064 374.312 60.04C374.072 59.992 373.784 59.968 373.448 59.968C372.536 59.968 371.864 60.184 371.432 60.616C371 61.048 370.784 61.672 370.784 62.488V82H365.384ZM362.324 67.744V63.64H374.528V67.744H362.324ZM383.145 82L392.433 56.08H397.185L388.653 82H383.145ZM402.153 82L393.657 56.08H398.625L407.913 82H402.153ZM388.041 71.956H402.585V76.276H388.041V71.956ZM410.949 82V63.64H416.241V67.96H416.349V82H410.949ZM416.349 72.424L415.881 68.068C416.313 66.508 417.021 65.32 418.005 64.504C418.989 63.688 420.213 63.28 421.677 63.28C422.133 63.28 422.469 63.328 422.685 63.424V68.464C422.565 68.416 422.397 68.392 422.181 68.392C421.965 68.368 421.701 68.356 421.389 68.356C419.661 68.356 418.389 68.668 417.573 69.292C416.757 69.892 416.349 70.936 416.349 72.424ZM434.462 82.396C432.11 82.396 430.358 81.832 429.206 80.704C428.078 79.552 427.514 77.812 427.514 75.484V59.536L432.914 57.52V75.664C432.914 76.48 433.142 77.092 433.598 77.5C434.054 77.908 434.762 78.112 435.722 78.112C436.082 78.112 436.418 78.076 436.73 78.004C437.042 77.932 437.354 77.848 437.666 77.752V81.856C437.354 82.024 436.91 82.156 436.334 82.252C435.782 82.348 435.158 82.396 434.462 82.396ZM424.094 67.744V63.64H437.666V67.744H424.094Z" fill="black"/>
</svg>
